<svg version="1.1" id="Layer_1" xmlns="http://www.w3.org/2000/svg" xmlns:xlink="http://www.w3.org/1999/xlink" x="0px" y="0px"
	 viewBox="0 0 187.26 75.52" style="enable-background:new 0 0 187.26 75.52;" xml:space="preserve">
<style type="text/css">
	.st0{fill:#1D2088;}
	.st1{fill:#C30D23;}
	.st2{fill:#009944;}
</style>
<g>
	<path class="st0" d="M61.57,50.89C63.95,78.84,14.51,75.9,1.34,71.05c2.71-21.79-1.4-45.96,1.65-69.47
		c25.36-1.73,76.66-1.96,49.85,33.31C56.78,37.61,61.77,42.95,61.57,50.89z M39.73,22.3c0.53-6.26-22.35-13.99-18.13,2.99
		C19.66,32.1,41.14,28.53,39.73,22.3z M41.25,50.68c2.12-7.26-20.52-11.04-19.34-3.75C17,61.94,39.18,60.86,41.25,50.68z"/>
	<path class="st1" d="M118.69,47.43c7.31,35.05-16.62,28.99-17.37,19.96c-16.48,16.92-40.07-2.14-35.28-25.02
		c2.91-20.3,24.62-24.42,37.34-14.75c0.19-7.43,12.02-3.15,17.08-0.71C119.6,32.14,118.7,39.41,118.69,47.43z M102.34,47.74
		c0.76-10.93-18.42-15.16-19.55,0C82.31,58.56,101.09,63,102.34,47.74z"/>
	<path class="st2" d="M185.22,39.66c-1.89,23.43-22.05,7.94-2.88,31.41c-23.12,11.14-19.21-13.09-34.64-9.88
		c5.93,14.08-18.59,16.6-17.93,7.16c2.9-82.09-12.8-63.6,18.33-68.35c2.83-0.41-3.56,34.89,1.22,29.25
		C158.93,18.37,185.67,19.84,185.22,39.66z M165.06,42.96c-0.27-11.77-22.65-4.56-16.15,6.7C152.76,51.38,166.19,50.01,165.06,42.96
		z"/>
</g>
</svg>
